<?xml version="1.0" encoding="UTF-8"?>
<svg width="179px" height="38px" viewBox="0 0 179 38" version="1.1" xmlns="http://www.w3.org/2000/svg" xmlns:xlink="http://www.w3.org/1999/xlink">
    <!-- Generator: Sketch 57.1 (83088) - https://sketch.com -->
    <title>vanhack-logo-light</title>
    <desc>Created with Sketch.</desc>
    <g id="Page-1" stroke="none" stroke-width="1" fill="none" fill-rule="evenodd">
        <g id="Artboard" transform="translate(-49.000000, -256.000000)" fill="#FFFFFF">
            <g id="vh-/-brand-/-vanhack-logo-/-light" transform="translate(49.000000, 256.000000)">
                <g id="vh-/-brand-/-vanhack-logo-/-white">
                    <g id="VanHack-logo" fill-rule="nonzero">
                        <path d="M161.457101,14.7772781 C161.907205,14.9639053 162.01073,15.1685207 161.819435,15.631716 C161.484107,16.4366864 161.200541,17.264142 160.93723,18.1050888 C160.797697,18.5547929 160.606403,18.6357396 160.169801,18.4671006 C159.030878,18.0552464 157.816863,17.8919373 156.609472,17.9881657 C154.660518,18.0848521 153.404725,19.2360947 153.098654,21.1473373 C152.950569,22.129567 152.958925,23.1290177 153.12341,24.1086391 C153.364216,25.6556213 154.28468,26.5145562 155.902807,26.7866272 C157.449426,27.011384 159.024327,26.9481085 160.547889,26.6 C161.025,26.5033136 161.162282,26.6 161.223046,27.0744379 C161.344574,27.9626036 161.506612,28.8440237 161.702408,29.7186982 C161.794679,30.127929 161.738416,30.2830769 161.297313,30.3932544 C158.647592,31.0491258 155.879657,31.0653117 153.222433,30.4404734 C150.100956,29.7142012 148.361301,27.6545562 148.003468,24.427929 C147.827927,22.8539645 147.778415,21.28 148.22852,19.7195266 C149.12873,16.4704142 151.930632,14.2646154 155.472957,14.0195266 C155.968072,13.9857988 156.465438,14.0195266 156.960553,14.0195266 L156.956052,14.0015385 C158.495887,13.9154119 160.035138,14.1806962 161.457101,14.7772781 Z M167.706806,8.16213018 C168.23793,8.14639053 168.314448,8.35100592 168.312197,8.81420118 C168.294193,12.3601183 168.312197,15.9060355 168.312197,19.4519527 L168.312197,20.3513609 C169.052619,19.3687574 169.662512,18.5525444 170.285907,17.7318343 C171.022578,16.7484813 171.7585,15.7636292 172.493671,14.7772781 C172.633203,14.5906509 172.750231,14.383787 173.040548,14.3860355 L178.135735,14.3860355 L175.061519,18.2512426 C174.235577,19.2855621 173.418636,20.3288757 172.585942,21.3497041 C172.322631,21.6712426 172.255115,21.8938462 172.585942,22.2491124 C173.461396,23.1777515 174.289589,24.1513609 175.142538,25.1002367 C176.105762,26.1727811 177.357053,26.764142 178.696115,27.2048521 L178.696115,27.9131361 L178.680362,27.904142 C178.351785,28.6214201 178.349535,29.4039053 178.250512,30.1526627 C178.180745,30.6810651 178.025459,30.9036686 177.424569,30.8699408 C174.72394,30.7215385 172.549934,29.6984615 170.976818,27.4454438 C170.182383,26.3076923 169.288925,25.239645 168.312197,23.9714793 L168.312197,24.8933728 C168.312197,26.5730178 168.296443,28.2504142 168.312197,29.9300592 C168.312197,30.3797633 168.19517,30.5573964 167.72256,30.5461538 C166.446513,30.5214201 165.165964,30.5236686 163.896669,30.5461538 C163.480322,30.5461538 163.320535,30.4472189 163.320535,29.9952663 C163.332537,22.903432 163.332537,15.8108481 163.320535,8.71751479 C163.320535,8.26781065 163.446564,8.15313609 163.880915,8.16213018 C165.156962,8.18911243 166.43751,8.19810651 167.706806,8.16213018 Z M85.9677704,14.3613018 C88.2182945,14.9009467 89.2805419,16.3287574 89.3435566,18.6604734 C89.3630611,19.4639448 89.3565596,20.2674162 89.3500581,21.0715538 L89.3435566,22.2783432 L89.3458071,22.2895858 C89.3458071,23.447574 89.3863166,24.6078107 89.3300535,25.7657988 C89.2962956,26.487574 89.568609,26.8608284 90.2617704,26.876568 C90.7118753,26.876568 90.8063973,27.0721893 90.7771405,27.4791716 C90.7096247,28.396568 90.6736164,29.3184615 90.637608,30.240355 C90.637608,30.4809467 90.5858459,30.6518343 90.2955283,30.6608284 C88.7786751,30.7102959 87.2618218,30.7305325 85.8619958,30.0087574 C85.6200812,29.9092786 85.4138082,29.7392353 85.270108,29.5208284 C84.9820409,28.9047337 84.6939738,29.147574 84.3091342,29.4128994 C82.4378852,30.7726118 80.0316568,31.1639747 77.8253742,30.4674556 C75.8831719,29.8963314 74.8119224,28.5 74.6903941,26.4695858 C74.5486111,24.1018935 75.3655514,22.5976331 77.287499,21.7476923 C78.5432914,21.176568 79.8936059,21.0259172 81.2439203,20.9786982 C82.1666352,20.9449704 83.0893501,20.9539645 84.012065,20.9786982 C84.3811509,20.9786982 84.4914266,20.8595266 84.5071803,20.4907692 C84.5589423,18.9977515 84.0975849,18.4378698 82.5942348,18.2130178 C80.7758113,17.9589349 79.0136509,18.347929 77.2604927,18.727929 C76.77663,18.8336095 76.5853354,18.7728994 76.4795608,18.2782249 C76.2792642,17.4057988 76.029456,16.5446154 75.7706457,15.683432 C75.6761237,15.3663905 75.7481405,15.2157396 76.0654644,15.1010651 C79.2949665,13.9183432 82.5919843,13.5608284 85.9677704,14.3613018 Z M141.692998,14.2736095 C144.087556,14.7502959 145.26683,16.1826036 145.327594,18.6312426 C145.356851,19.7892308 145.327594,20.9472189 145.327594,22.1052071 L145.341097,22.1052071 L145.341097,22.1186982 C145.341097,23.3239053 145.379356,24.5313609 145.327594,25.732071 C145.293836,26.4853254 145.593156,26.8563314 146.315574,26.8788166 C146.783683,26.8788166 146.830944,27.0676923 146.794936,27.4881657 C146.716168,28.3560947 146.707166,29.2330178 146.68466,30.1076923 C146.68466,30.4742012 146.542877,30.672071 146.144535,30.6810651 C144.888742,30.7057988 143.639701,30.6810651 142.43342,30.2718343 C141.956309,30.1144379 141.472447,29.8850888 141.236142,29.4353846 C140.968329,28.9249704 140.736525,29.1273373 140.432704,29.3431953 C138.43649,30.7507692 136.255732,31.1577515 133.906184,30.4674556 C131.927974,29.8940828 130.825217,28.495503 130.692436,26.4515976 C130.530398,24.1288757 131.430608,22.5526627 133.375061,21.7094675 C134.74563,21.1181065 136.20397,20.9966864 137.675812,20.9719527 C138.431988,20.9584615 139.190415,20.9427219 139.946591,20.9719527 C140.396696,20.9944379 140.491218,20.8235503 140.495719,20.4053254 C140.495719,18.892071 140.137886,18.4288757 138.616531,18.2130178 C136.802609,17.9544379 135.040449,18.3501775 133.28729,18.7256805 C132.81468,18.8268639 132.612133,18.784142 132.504108,18.2759763 C132.317314,17.4260355 132.054003,16.5895858 131.815448,15.7508876 C131.714174,15.4068639 131.734429,15.2269822 132.141774,15.0763314 C135.188383,13.9244794 138.496606,13.6464434 141.692998,14.2736095 Z M57.642674,9.5764497 C58.110783,9.5764497 58.2930755,9.72934911 58.4213553,10.1588166 C59.9757173,15.3334122 61.5413319,20.5050099 63.1181992,25.6736095 C63.2059696,25.9659172 63.3049927,26.2537278 63.4535273,26.707929 C63.9351394,25.3947929 64.36724,24.2345562 64.7903386,23.0540828 C66.3266964,18.7923866 67.8578029,14.5284418 69.3836583,10.2622485 C69.5591992,9.77207101 69.7752495,9.55621302 70.3311289,9.58769231 C71.5824203,9.63491124 72.8382128,9.62816568 74.0917547,9.58769231 C74.6971457,9.56970414 74.7961688,9.69786982 74.5666153,10.2757396 C72.7369392,14.8807101 70.9387704,19.4946746 69.1315996,24.1131361 C68.3821751,26.0243787 67.6237484,27.9356213 66.8990797,29.8536095 C66.7100356,30.3572781 66.4782317,30.5933728 65.8863438,30.5753846 C64.1849476,30.5281657 62.4790503,30.5349112 60.7776541,30.5753846 C60.2262757,30.5866272 60.0079748,30.3932544 59.836935,29.8873373 C57.6194186,23.3651282 55.3876488,16.8444181 53.1416258,10.3252071 C53.0741101,10.1273373 52.9728365,9.94071006 52.8873166,9.7495858 L52.8873166,9.60792899 C54.4626834,9.60343195 56.058305,9.60343195 57.642674,9.5764497 Z M104.242026,14.0824852 C106.537561,14.5186982 107.593057,15.7688757 107.818109,18.1005917 C107.9959,19.9398817 107.914882,21.7836686 107.930635,23.6252071 C107.946389,25.7028402 107.917132,27.7849704 107.946389,29.8626036 C107.946389,30.3730178 107.838364,30.5776331 107.284735,30.559645 C106.055949,30.5214201 104.824912,30.5259172 103.596126,30.559645 C103.103261,30.5731361 102.954726,30.4269822 102.956977,29.9278107 C102.979482,26.9507692 102.956977,23.9737278 102.96823,20.9966864 C102.980955,20.5007832 102.941733,20.0049101 102.851202,19.5171598 C102.67116,18.6672189 102.279569,18.3142012 101.397364,18.2489941 C100.191279,18.169853 98.9820282,18.3452949 97.8482872,18.7639053 C97.3351677,18.943787 97.125869,19.1798817 97.1326205,19.7689941 C97.1686289,23.123787 97.1326205,26.4785799 97.1618774,29.8356213 C97.1618774,30.3752663 97.0425996,30.5821302 96.4642149,30.564142 C95.2354287,30.5236686 94.004392,30.5371598 92.7756059,30.564142 C92.3412547,30.564142 92.1567117,30.4831953 92.1567117,29.9817751 C92.1762163,24.9495858 92.1762163,19.9166469 92.1567117,14.8829586 C92.1567117,14.4332544 92.3052463,14.3208284 92.7283449,14.327574 C93.957131,14.3500592 95.1881677,14.3680473 96.4169539,14.327574 C97.0133428,14.3050888 97.2271426,14.4849704 97.1573763,15.0740828 C97.0951494,15.3376515 97.1220566,15.6143905 97.2338941,15.8610651 L97.2473973,15.847574 C97.7852725,15.5372781 98.3028931,15.2247337 98.8227642,14.9346746 C100.469016,14.0121359 102.391733,13.709785 104.242026,14.0824852 Z M128.153845,9.56071006 C128.540935,9.56071006 128.687219,9.65065089 128.687219,10.0688757 C128.675216,16.7110059 128.675216,23.3538856 128.687219,29.9975148 C128.687219,30.4674556 128.502676,30.5394083 128.102083,30.5349112 C126.80128,30.5169231 125.500477,30.507929 124.197423,30.5349112 C123.677552,30.5484024 123.571778,30.343787 123.576279,29.860355 C123.596534,27.4252071 123.576279,24.9900592 123.596534,22.5549112 C123.596534,22.0332544 123.472755,21.880355 122.921376,21.880355 C120.370782,21.9103353 117.815687,21.9103353 115.256091,21.880355 C114.751974,21.880355 114.621443,22.035503 114.625944,22.523432 C114.64845,24.9360947 114.610191,27.3465089 114.652951,29.7569231 C114.664203,30.4089941 114.457155,30.5506509 113.851764,30.5259172 C112.670239,30.4786982 111.484213,30.4719527 110.302688,30.5259172 C109.62753,30.559645 109.530758,30.3010651 109.537509,29.7097041 C109.562265,26.4695858 109.548762,23.231716 109.548762,19.9938462 L109.573518,20.0298225 C109.573518,16.7672189 109.587021,13.5091124 109.562265,10.2420118 C109.562265,9.70461538 109.71305,9.56745562 110.237422,9.56745562 C111.51347,9.60568047 112.791767,9.59893491 114.063313,9.56745562 C114.531422,9.56745562 114.664203,9.70236686 114.659702,10.1655621 C114.639448,12.5534911 114.675456,14.9414201 114.632696,17.3293491 C114.621443,17.9791716 114.826241,18.1073373 115.431632,18.0983432 C117.907209,18.0646154 120.400789,18.0691124 122.885368,18.0983432 C123.432245,18.0983432 123.612287,17.972426 123.603285,17.3990533 C123.569527,15.0111243 123.603285,12.6231953 123.576279,10.2352663 C123.576279,9.69786982 123.722563,9.56071006 124.251436,9.56071006 C125.552239,9.59893491 126.853042,9.58544379 128.153845,9.56071006 Z M84.1831048,23.9085207 C82.990327,23.9804734 81.770543,23.7691124 80.6047715,24.1783432 C79.8035849,24.4594083 79.4412505,25.0260355 79.5312715,25.7905325 C79.6032883,26.4156213 80.1366625,26.8540828 80.9446006,26.9350296 C81.7228903,26.9864615 82.5043623,26.9105105 83.2581394,26.7101775 C84.4914266,26.4246154 84.4914266,26.4268639 84.4891761,25.1946746 L84.4891761,24.2840237 C84.4891761,24.0726627 84.437414,23.8927811 84.1831048,23.9085207 Z M136.714839,24.1243787 L136.712588,24.1243787 C135.882145,24.3986982 135.43429,25.0102959 135.51981,25.7455621 C135.598579,26.4201183 136.179214,26.8698225 137.056918,26.9350296 C137.934623,27.0002367 138.787571,26.7956213 139.647271,26.6382249 C140.275168,26.5235503 140.536229,26.2942012 140.506972,25.5881657 C140.439456,23.8950296 140.486717,23.8950296 138.515258,23.9242604 C137.908258,23.8939978 137.30034,23.9615684 136.714839,24.1243787 Z" id="VanHack"></path>
                        <g id="icon" transform="translate(0.000000, 0.000000)">
                            <path d="M3.68635849,9.42579882 L9.92481132,21.6352663 C10.1498637,20.8640237 10.3479099,20.252426 10.5279518,19.6363314 C12.3988875,13.2910059 14.264572,6.94792899 16.1250052,0.607100592 C16.2667883,0.119171598 16.4693354,0 16.9554486,0 C19.6560776,0.0247337278 22.3702096,0.0112426036 25.0775901,0.0112426036 L25.716739,0.0112426036 C25.2328763,1.65940828 24.7692683,3.24686391 24.3011593,4.83207101 C21.1234193,15.5994872 17.9501803,26.3676529 14.7814423,37.136568 C14.612653,37.7144379 14.3876006,37.8898225 13.7889612,37.8785799 C11.5091803,37.8381065 9.22714885,37.8515976 6.9451174,37.8785799 C6.60655447,37.922312 6.28556855,37.7164187 6.18444025,37.3906509 C4.24748917,33.06 2.29703494,28.7345957 0.333077568,24.4144379 C0.216493387,24.1902271 0.18530625,23.9313646 0.245307128,23.6859172 C1.39532495,18.9887574 2.51833648,14.2960947 3.68635849,9.42579882" id="path18"></path>
                            <path d="M46.5993522,0.0742011834 C46.1717526,1.53798817 45.7509046,2.99727811 45.318804,4.46556213 C42.0915524,15.3918738 38.8658012,26.3189349 35.6415503,37.2467456 C35.5042683,37.7166864 35.3197254,37.8740828 34.820109,37.8695858 C32.0272086,37.8426036 29.2343082,37.8560947 26.4414078,37.8560947 C26.3378836,37.8560947 26.232109,37.840355 26.0565681,37.8291124 C26.4661635,36.4350296 26.8667568,35.0746746 27.2673501,33.7143195 C28.1788124,30.615858 29.0812725,27.5128994 30.01524,24.4211834 C30.1750273,23.8950296 30.0827558,23.7623669 29.5358784,23.7668639 C27.1278176,23.7893491 24.7175063,23.7668639 22.3094455,23.7668639 C21.465499,23.7668639 21.4587474,23.7668639 21.6815493,22.9259172 C22.3567065,20.4008284 23.0431164,17.8779882 23.707021,15.3484024 C23.8240482,14.8986982 24.0175933,14.7323077 24.4879528,14.7390533 C27.0445482,14.7795266 29.6011436,14.7727811 32.157739,14.8267456 C32.7181195,14.8379882 32.9206667,14.6356213 33.0579486,14.1274556 C34.3767558,9.57420118 35.7225692,5.02994083 37.0593805,0.483431953 C37.1403994,0.209112426 37.2124161,-0.00224852071 37.5972558,7.6887925e-15 C40.5454423,0.0224852071 43.4868774,0.0179881657 46.4283124,0.0224852071 C46.4870091,0.0335777108 46.5443489,0.0509151104 46.5993522,0.0742011834" id="path20"></path>
                        </g>
                    </g>
                </g>
            </g>
        </g>
    </g>
</svg>